<svg xmlns="http://www.w3.org/2000/svg" width="16" height="16" viewBox="0 0 16 16" fill="#b3b3b3" shape-rendering="crispEdges" aria-hidden="true"><rect x="5" y="0" width="2" height="1"/><rect x="5" y="1" width="2" height="1"/><rect x="5" y="2" width="2" height="1"/><rect x="5" y="3" width="2" height="1"/><rect x="5" y="4" width="4" height="1"/><rect x="2" y="5" width="1" height="1"/><rect x="5" y="5" width="7" height="1"/><rect x="1" y="6" width="3" height="1"/><rect x="5" y="6" width="9" height="1"/><rect x="1" y="7" width="13" height="1"/><rect x="1" y="8" width="13" height="1"/><rect x="2" y="9" width="12" height="1"/><rect x="3" y="10" width="11" height="1"/><rect x="3" y="11" width="11" height="1"/><rect x="4" y="12" width="10" height="1"/><rect x="5" y="13" width="9" height="1"/><rect x="6" y="14" width="7" height="1"/></svg>
