<svg xmlns="http://www.w3.org/2000/svg" width="16" height="16" viewBox="0 0 16 16" fill="#b3b3b3" shape-rendering="crispEdges" aria-hidden="true"><rect x="0" y="1" width="16" height="1"/><rect x="0" y="2" width="16" height="1"/><rect x="0" y="3" width="7" height="1"/><rect x="9" y="3" width="7" height="1"/><rect x="0" y="4" width="7" height="1"/><rect x="9" y="4" width="7" height="1"/><rect x="0" y="5" width="6" height="1"/><rect x="10" y="5" width="6" height="1"/><rect x="0" y="6" width="2" height="1"/><rect x="14" y="6" width="2" height="1"/><rect x="0" y="7" width="3" height="1"/><rect x="13" y="7" width="3" height="1"/><rect x="0" y="8" width="4" height="1"/><rect x="12" y="8" width="4" height="1"/><rect x="0" y="9" width="5" height="1"/><rect x="11" y="9" width="5" height="1"/><rect x="0" y="10" width="5" height="1"/><rect x="11" y="10" width="5" height="1"/><rect x="0" y="11" width="5" height="1"/><rect x="11" y="11" width="5" height="1"/><rect x="0" y="12" width="4" height="1"/><rect x="5" y="12" width="6" height="1"/><rect x="12" y="12" width="4" height="1"/><rect x="0" y="13" width="16" height="1"/><rect x="0" y="14" width="16" height="1"/></svg>
