<svg xmlns="http://www.w3.org/2000/svg" width="16" height="16" viewBox="0 0 16 16" fill="#b3b3b3" shape-rendering="crispEdges" aria-hidden="true"><rect x="0" y="1" width="16" height="1"/><rect x="0" y="2" width="16" height="1"/><rect x="0" y="3" width="16" height="1"/><rect x="0" y="4" width="9" height="1"/><rect x="15" y="4" width="1" height="1"/><rect x="0" y="5" width="4" height="1"/><rect x="5" y="5" width="11" height="1"/><rect x="0" y="6" width="3" height="1"/><rect x="6" y="6" width="3" height="1"/><rect x="15" y="6" width="1" height="1"/><rect x="0" y="7" width="2" height="1"/><rect x="6" y="7" width="10" height="1"/><rect x="0" y="8" width="1" height="1"/><rect x="7" y="8" width="2" height="1"/><rect x="15" y="8" width="1" height="1"/><rect x="0" y="9" width="1" height="1"/><rect x="8" y="9" width="8" height="1"/><rect x="0" y="10" width="9" height="1"/><rect x="13" y="10" width="3" height="1"/><rect x="0" y="11" width="16" height="1"/><rect x="0" y="12" width="16" height="1"/><rect x="0" y="13" width="16" height="1"/></svg>
