<svg xmlns="http://www.w3.org/2000/svg" width="16" height="16" viewBox="0 0 16 16" fill="#b3b3b3" shape-rendering="crispEdges" aria-hidden="true"><rect x="0" y="0" width="4" height="1"/><rect x="6" y="0" width="10" height="1"/><rect x="0" y="1" width="4" height="1"/><rect x="6" y="1" width="10" height="1"/><rect x="0" y="2" width="4" height="1"/><rect x="6" y="2" width="10" height="1"/><rect x="0" y="3" width="4" height="1"/><rect x="6" y="3" width="10" height="1"/><rect x="0" y="6" width="4" height="1"/><rect x="6" y="6" width="10" height="1"/><rect x="0" y="7" width="4" height="1"/><rect x="6" y="7" width="10" height="1"/><rect x="0" y="8" width="4" height="1"/><rect x="6" y="8" width="10" height="1"/><rect x="0" y="9" width="4" height="1"/><rect x="6" y="9" width="10" height="1"/><rect x="0" y="12" width="4" height="1"/><rect x="6" y="12" width="10" height="1"/><rect x="0" y="13" width="4" height="1"/><rect x="6" y="13" width="10" height="1"/><rect x="0" y="14" width="4" height="1"/><rect x="6" y="14" width="10" height="1"/><rect x="0" y="15" width="4" height="1"/><rect x="6" y="15" width="10" height="1"/></svg>
